<svg xmlns="http://www.w3.org/2000/svg" width="140" height="21" viewBox="0 0 140 21">
  <defs>
    <style>
      .cls-1 {
        fill: #fff;
        fill-rule: evenodd;
      }
    </style>
  </defs>
  <path id="Shape_956_1" data-name="Shape 956 1" class="cls-1" d="M136.356,6.918v9.226H132.81V6.918C132.81,2.79,135.7.022,140,0V3.155A3.505,3.505,0,0,0,136.356,6.918Zm-7.358,0v9.226h-3.546V6.918c0-4.128,2.885-6.9,7.189-6.92V3.155A3.505,3.505,0,0,0,129,6.918Zm-18.26,2.574a4.746,4.746,0,0,0,4.549,3.958,4.552,4.552,0,0,0,4.133-2.792h3.815a8.152,8.152,0,1,1,.269-1.165H110.738Zm4.549-6.24a4.678,4.678,0,0,0-4.4,3.326l8.73-.024A4.567,4.567,0,0,0,115.287,3.252ZM98.221,21H95.433V17.844h2.788a3.585,3.585,0,0,0,3.595-3.472,6.676,6.676,0,0,1-5.16,2.234c-4.6,0-7.85-3.715-7.85-8.279A8.294,8.294,0,0,1,97.145.1a8.1,8.1,0,0,1,8.07,8.231v6.216C105.215,18.354,103.259,21,98.221,21ZM97.145,3.252a4.854,4.854,0,0,0-4.671,5.075,4.691,4.691,0,1,0,9.342,0A4.854,4.854,0,0,0,97.145,3.252ZM83.781,14.591a7.179,7.179,0,0,1-5.013,2.015A8.26,8.26,0,0,1,79.257.1a8.066,8.066,0,0,1,8.07,8.231v7.818H83.781V14.591ZM79.257,3.252a4.854,4.854,0,0,0-4.671,5.075,4.691,4.691,0,1,0,9.342,0A4.854,4.854,0,0,0,79.257,3.252ZM61.7,16.606a7.18,7.18,0,0,1-5.013-2.015V21H53.139V8.326A8.066,8.066,0,0,1,61.209.1,8.26,8.26,0,0,1,61.7,16.606ZM61.209,3.252a4.854,4.854,0,0,0-4.671,5.075,4.691,4.691,0,1,0,9.342,0A4.854,4.854,0,0,0,61.209,3.252ZM38.425,9.492a4.745,4.745,0,0,0,4.549,3.958,4.552,4.552,0,0,0,4.133-2.792h3.815a8.152,8.152,0,1,1,.269-1.165H38.425Zm4.549-6.24a4.678,4.678,0,0,0-4.4,3.326l8.73-.024A4.567,4.567,0,0,0,42.974,3.252ZM29.211,6.918a3.505,3.505,0,0,0-3.644-3.763,3.505,3.505,0,0,0-3.644,3.763v9.226H18.377V6.918c0-4.128,2.886-6.9,7.19-6.92,4.3,0.024,7.19,2.792,7.19,6.92v9.226H29.211V6.918ZM8.339,16.606A8.32,8.32,0,0,1,0,8.326,8.294,8.294,0,0,1,8.339.1a8.294,8.294,0,0,1,8.339,8.231A8.32,8.32,0,0,1,8.339,16.606Zm0-13.354A4.854,4.854,0,0,0,3.668,8.326a4.883,4.883,0,0,0,4.671,5.123A4.883,4.883,0,0,0,13.01,8.326,4.854,4.854,0,0,0,8.339,3.252Z"/>
</svg>
